<?xml version="1.0" standalone="no"?>
<!DOCTYPE svg PUBLIC "-//W3C//DTD SVG 20010904//EN"
 "http://www.w3.org/TR/2001/REC-SVG-20010904/DTD/svg10.dtd">
<svg version="1.0" xmlns="http://www.w3.org/2000/svg"
 width="3420.000000pt" height="2400.000000pt" viewBox="0 0 3420.000000 2400.000000"
 preserveAspectRatio="xMidYMid meet">

<g transform="translate(0.000000,2400.000000) scale(0.100000,-0.100000)"
fill="#000000" stroke="none">
<path d="M16927 23985 c-235 -45 -459 -177 -603 -358 -81 -101 -166 -271 -196
-392 l-23 -90 0 -2645 0 -2645 23 -90 c30 -121 115 -291 196 -392 126 -158
341 -295 541 -345 128 -32 342 -32 470 0 120 30 290 115 391 195 158 126 295
341 346 542 l23 90 0 2645 0 2645 -23 90 c-92 361 -378 647 -737 736 -107 27
-304 34 -408 14z"/>
<path d="M11448 22515 c-491 -80 -847 -492 -848 -981 0 -170 32 -309 103 -451
78 -155 2554 -4434 2605 -4501 285 -378 814 -498 1242 -282 260 131 442 356
522 648 18 64 22 105 22 242 0 193 -17 274 -88 425 -46 96 -2522 4390 -2589
4490 -200 297 -607 469 -969 410z"/>
<path d="M22410 22516 c-255 -54 -488 -206 -628 -410 -48 -69 -2534 -4370
-2584 -4471 -69 -136 -103 -310 -96 -483 11 -251 101 -460 277 -645 181 -190
416 -294 686 -304 150 -6 264 13 400 66 172 66 363 218 462 366 97 147 2570
4447 2601 4524 153 377 59 812 -236 1093 -127 120 -273 203 -437 248 -102 28
-345 37 -445 16z"/>
<path d="M7390 18486 c-391 -82 -686 -361 -787 -745 -22 -82 -26 -118 -26
-241 0 -123 4 -159 26 -241 62 -234 200 -438 389 -572 85 -60 4401 -2550 4503
-2598 237 -111 533 -118 780 -20 235 94 425 273 536 506 63 132 89 233 96 375
11 228 -45 426 -178 621 -58 86 -178 204 -264 260 -38 25 -585 343 -1215 706
-630 363 -1523 879 -1985 1145 -462 267 -927 535 -1033 597 -319 183 -401 211
-632 217 -97 2 -167 -1 -210 -10z"/>
<path d="M26429 18481 c-47 -10 -124 -34 -170 -53 -77 -31 -4379 -2505 -4524
-2601 -141 -94 -289 -274 -354 -432 -63 -150 -75 -213 -75 -395 0 -138 4 -178
22 -242 78 -284 251 -507 494 -638 147 -79 261 -109 438 -117 156 -6 267 12
405 66 45 17 279 145 520 284 242 140 778 449 1190 687 413 238 1202 694 1755
1013 553 319 1030 596 1060 615 71 45 200 170 256 248 58 81 129 231 156 329
18 67 22 108 22 250 1 148 -2 181 -22 255 -27 96 -81 218 -137 306 -48 75
-172 203 -251 260 -83 60 -230 128 -334 155 -121 31 -332 36 -451 10z"/>
<path d="M5927 12984 c-232 -42 -459 -176 -603 -357 -82 -102 -166 -271 -196
-392 -32 -128 -32 -342 0 -470 50 -200 187 -415 345 -541 101 -81 271 -166
392 -196 l90 -23 2645 0 2645 0 90 23 c50 12 139 47 200 77 209 102 358 251
461 460 76 156 98 253 98 435 0 177 -21 276 -93 425 -132 276 -363 466 -666
548 l-80 22 -2625 2 c-2221 1 -2637 -1 -2703 -13z"/>
<path d="M22975 12989 c-214 -28 -409 -123 -568 -278 -404 -391 -404 -1031 0
-1422 163 -159 356 -251 583 -279 117 -14 5103 -14 5220 0 237 30 443 132 606
302 374 390 374 986 0 1376 -165 171 -367 272 -606 302 -106 13 -5132 12
-5235 -1z"/>
<path d="M11699 9981 c-47 -10 -124 -34 -170 -52 -77 -32 -4370 -2500 -4530
-2605 -91 -60 -233 -212 -290 -310 -105 -180 -144 -334 -136 -549 7 -202 53
-350 162 -521 48 -75 172 -203 251 -260 83 -60 230 -128 334 -155 194 -50 432
-34 621 43 46 18 325 172 619 342 931 538 1653 955 2765 1596 594 343 1113
645 1153 673 147 101 287 280 353 452 53 136 72 250 66 400 -10 272 -114 504
-306 688 -128 122 -274 204 -441 248 -121 31 -332 36 -451 10z"/>
<path d="M22123 9986 c-254 -49 -471 -182 -627 -385 -254 -330 -268 -802 -35
-1151 68 -101 178 -214 269 -275 36 -24 664 -389 1395 -811 732 -421 1713
-987 2180 -1257 468 -270 884 -506 926 -524 277 -120 600 -106 867 38 191 102
360 285 442 477 64 152 75 210 74 407 0 167 -2 186 -28 270 -50 164 -124 292
-235 409 -99 103 -150 138 -461 318 -1934 1120 -4141 2389 -4201 2415 -42 18
-111 42 -155 54 -103 26 -310 34 -411 15z"/>
<path d="M19948 7795 c-614 -100 -989 -712 -797 -1300 16 -49 44 -117 62 -151
18 -34 599 -1043 1292 -2243 888 -1539 1279 -2206 1323 -2261 82 -103 202
-198 327 -260 497 -245 1092 -46 1339 447 140 278 140 618 1 893 -43 86 -2533
4397 -2578 4465 -51 76 -165 189 -246 244 -208 142 -484 205 -723 166z"/>
<path d="M13900 7781 c-258 -55 -485 -207 -628 -418 -92 -137 -2569 -4444
-2600 -4522 -153 -377 -59 -812 236 -1093 128 -122 273 -204 442 -250 73 -20
108 -23 250 -23 142 0 177 3 250 23 98 27 224 84 307 139 84 55 203 173 261
256 92 134 2576 4450 2610 4536 56 138 75 253 69 411 -6 130 -20 208 -60 316
-77 209 -250 409 -449 518 -206 114 -466 154 -688 107z"/>
<path d="M16955 6990 c-433 -67 -784 -422 -844 -854 -15 -109 -15 -5163 0
-5272 81 -583 657 -974 1229 -833 119 29 287 113 387 194 192 154 328 395 362
639 15 109 15 5163 0 5272 -34 244 -173 489 -363 641 -99 78 -269 164 -386
193 -98 24 -292 34 -385 20z"/>
</g>
</svg>
